<svg width="22" height="22" viewBox="0 0 22 22" fill="none" xmlns="http://www.w3.org/2000/svg">
<path d="M17.9208 13.2758C17.9073 13.3843 17.8531 13.4841 17.7686 13.5562C17.6841 13.6283 17.5751 13.6678 17.4625 13.667H15.5833C15.4618 13.667 15.3452 13.7138 15.2592 13.7972C15.1733 13.8805 15.125 13.9936 15.125 14.1115V21.2235C15.125 21.3414 15.1733 21.4544 15.2592 21.5378C15.3452 21.6211 15.4618 21.668 15.5833 21.668H21.0833C21.3264 21.668 21.5596 21.5743 21.7315 21.4076C21.9034 21.2409 22 21.0147 22 20.779V1.22103C22 0.985252 21.9034 0.759132 21.7315 0.592413C21.5596 0.425693 21.3264 0.332031 21.0833 0.332031H0.916667C0.673552 0.332031 0.440394 0.425693 0.268485 0.592413C0.0965771 0.759132 0 0.985252 0 1.22103L0 20.779C0 21.0147 0.0965771 21.2409 0.268485 21.4076C0.440394 21.5743 0.673552 21.668 0.916667 21.668H11C11.1216 21.668 11.2381 21.6211 11.3241 21.5378C11.41 21.4544 11.4583 21.3414 11.4583 21.2235V14.1115C11.4583 13.9936 11.41 13.8805 11.3241 13.7972C11.2381 13.7138 11.1216 13.667 11 13.667H9.16667C9.04511 13.667 8.92853 13.6202 8.84258 13.5368C8.75662 13.4534 8.70833 13.3404 8.70833 13.2225V10.5555C8.70833 10.4376 8.75662 10.3246 8.84258 10.2412C8.92853 10.1578 9.04511 10.111 9.16667 10.111H11C11.1216 10.111 11.2381 10.0642 11.3241 9.98081C11.41 9.89745 11.4583 9.78439 11.4583 9.6665V8.50192C11.4583 7.16035 12.0079 5.87372 12.986 4.92509C13.9642 3.97646 15.2908 3.44352 16.6742 3.44352H17.875C17.9966 3.44352 18.1131 3.49035 18.1991 3.57371C18.285 3.65707 18.3333 3.77013 18.3333 3.88802V6.55501C18.3333 6.6729 18.285 6.78596 18.1991 6.86932C18.1131 6.95268 17.9966 6.99951 17.875 6.99951H16.6742C16.2633 6.99951 15.8693 7.1578 15.5787 7.43956C15.2882 7.72131 15.125 8.10345 15.125 8.50192V9.6665C15.125 9.78439 15.1733 9.89745 15.2592 9.98081C15.3452 10.0642 15.4618 10.111 15.5833 10.111H17.8108C17.8759 10.1105 17.9404 10.1235 17.9999 10.1491C18.0595 10.1747 18.1127 10.2123 18.156 10.2594C18.1994 10.3066 18.2319 10.3621 18.2514 10.4223C18.2709 10.4826 18.277 10.5462 18.2692 10.6088L17.9208 13.2758Z" fill="white"/>
</svg>
