<svg width="22" height="22" viewBox="0 0 22 22" fill="none" xmlns="http://www.w3.org/2000/svg">
<mask id="mask0_37_188" style="mask-type:alpha" maskUnits="userSpaceOnUse" x="0" y="0" width="22" height="22">
<path d="M0 0.00146484H22V21.9988H0V0.00146484Z" fill="white"/>
</mask>
<g mask="url(#mask0_37_188)">
<path fill-rule="evenodd" clip-rule="evenodd" d="M11 0.00146484C8.01258 0.00146484 7.63798 0.0141276 6.46471 0.0676603C5.29389 0.121062 4.49426 0.307029 3.79458 0.578972C3.07123 0.860041 2.45779 1.23617 1.84623 1.84769C1.2347 2.45926 0.858576 3.0727 0.577508 3.79605C0.305565 4.49573 0.119597 5.29536 0.0661955 6.46618C0.0126627 7.63945 0 8.01404 0 11.0015C0 13.9889 0.0126627 14.3635 0.0661955 15.5368C0.119597 16.7076 0.305565 17.5072 0.577508 18.2069C0.858576 18.9302 1.2347 19.5437 1.84623 20.1552C2.45779 20.7668 3.07123 21.1429 3.79458 21.424C4.49426 21.6959 5.29389 21.8819 6.46471 21.9353C7.63798 21.9888 8.01258 22.0015 11 22.0015C13.9874 22.0015 14.362 21.9888 15.5353 21.9353C16.7061 21.8819 17.5057 21.6959 18.2054 21.424C18.9288 21.1429 19.5422 20.7668 20.1538 20.1552C20.7653 19.5437 21.1414 18.9302 21.4225 18.2069C21.6944 17.5072 21.8804 16.7076 21.9338 15.5368C21.9873 14.3635 22 13.9889 22 11.0015C22 8.01404 21.9873 7.63945 21.9338 6.46618C21.8804 5.29536 21.6944 4.49573 21.4225 3.79605C21.1414 3.0727 20.7653 2.45926 20.1538 1.84769C19.5422 1.23617 18.9288 0.860041 18.2054 0.578972C17.5057 0.307029 16.7061 0.121062 15.5353 0.0676603C14.362 0.0141276 13.9874 0.00146484 11 0.00146484ZM11 1.98344C13.9371 1.98344 14.285 1.99467 15.4449 2.04759C16.5174 2.09649 17.0999 2.27569 17.4875 2.42633C18.0009 2.62588 18.3674 2.86424 18.7523 3.24919C19.1372 3.63409 19.3756 4.00053 19.5751 4.51398C19.7258 4.90159 19.905 5.48403 19.9539 6.55652C20.0068 7.71643 20.018 8.06435 20.018 11.0015C20.018 13.9386 20.0068 14.2865 19.9539 15.4464C19.905 16.5189 19.7258 17.1013 19.5751 17.489C19.3756 18.0024 19.1372 18.3688 18.7523 18.7537C18.3674 19.1387 18.0009 19.377 17.4875 19.5766C17.0999 19.7272 16.5174 19.9064 15.4449 19.9553C14.2852 20.0083 13.9373 20.0195 11 20.0195C8.06266 20.0195 7.71483 20.0083 6.55506 19.9553C5.48257 19.9064 4.90013 19.7272 4.51252 19.5766C3.99906 19.377 3.63263 19.1387 3.24773 18.7537C2.86282 18.3688 2.62442 18.0024 2.42487 17.489C2.27423 17.1013 2.09503 16.5189 2.04612 15.4464C1.9932 14.2865 1.98198 13.9386 1.98198 11.0015C1.98198 8.06435 1.9932 7.71643 2.04612 6.55652C2.09503 5.48403 2.27423 4.90159 2.42487 4.51398C2.62442 4.00053 2.86278 3.63409 3.24773 3.24919C3.63263 2.86424 3.99906 2.62588 4.51252 2.42633C4.90013 2.27569 5.48257 2.09649 6.55506 2.04759C7.71496 1.99467 8.06288 1.98344 11 1.98344Z" fill="white"/>
</g>
<path fill-rule="evenodd" clip-rule="evenodd" d="M10.9997 14.6683C8.97467 14.6683 7.33305 13.0267 7.33305 11.0017C7.33305 8.97662 8.97467 7.33501 10.9997 7.33501C13.0248 7.33501 14.6664 8.97662 14.6664 11.0017C14.6664 13.0267 13.0248 14.6683 10.9997 14.6683ZM10.9997 5.35303C7.88004 5.35303 5.35107 7.88199 5.35107 11.0017C5.35107 14.1214 7.88004 16.6503 10.9997 16.6503C14.1194 16.6503 16.6484 14.1214 16.6484 11.0017C16.6484 7.88199 14.1194 5.35303 10.9997 5.35303Z" fill="white"/>
<path fill-rule="evenodd" clip-rule="evenodd" d="M18.1918 5.12959C18.1918 5.85862 17.6008 6.44957 16.8717 6.44957C16.1428 6.44957 15.5518 5.85862 15.5518 5.12959C15.5518 4.40057 16.1428 3.80957 16.8717 3.80957C17.6008 3.80957 18.1918 4.40057 18.1918 5.12959Z" fill="white"/>
</svg>
