<svg width="22" height="22" viewBox="0 0 22 22" fill="none" xmlns="http://www.w3.org/2000/svg">
<path d="M6.125 8H2.45833C2.2052 8 2 8.2052 2 8.45833V20.375C2 20.6281 2.2052 20.8333 2.45833 20.8333H6.125C6.37813 20.8333 6.58333 20.6281 6.58333 20.375V8.45833C6.58333 8.2052 6.37813 8 6.125 8Z" fill="white"/>
<path d="M4.10683 5.95833C5.36236 5.95833 6.38016 4.93232 6.38016 3.66667C6.38016 2.40101 5.36236 1.375 4.10683 1.375C2.8513 1.375 1.8335 2.40101 1.8335 3.66667C1.8335 4.93232 2.8513 5.95833 4.10683 5.95833Z" fill="white"/>
<path d="M16.9583 20.6248H19.7083C19.8299 20.6248 19.9465 20.5765 20.0324 20.4906C20.1184 20.4046 20.1667 20.288 20.1667 20.1665V12.4665C20.1667 9.01064 18.2142 7.33315 15.4825 7.33315C14.9437 7.31344 14.4067 7.40685 13.9062 7.60737C13.4058 7.80788 12.9528 8.11104 12.5767 8.49731C12.5264 8.55536 12.4596 8.59662 12.3852 8.61556C12.3108 8.6345 12.2324 8.63021 12.1605 8.60325C12.0887 8.5763 12.0268 8.52798 11.9832 8.46479C11.9396 8.4016 11.9164 8.32658 11.9167 8.24981C11.9167 8.12825 11.8684 8.01167 11.7824 7.92572C11.6965 7.83977 11.5799 7.79148 11.4583 7.79148H8.70833C8.58678 7.79148 8.4702 7.83977 8.38424 7.92572C8.29829 8.01167 8.25 8.12825 8.25 8.24981V20.1665C8.25 20.288 8.29829 20.4046 8.38424 20.4906C8.4702 20.5765 8.58678 20.6248 8.70833 20.6248H11.4583C11.5799 20.6248 11.6965 20.5765 11.7824 20.4906C11.8684 20.4046 11.9167 20.288 11.9167 20.1665V13.2915C11.9167 12.6837 12.1581 12.1008 12.5879 11.671C13.0177 11.2413 13.6005 10.9998 14.2083 10.9998C14.8161 10.9998 15.399 11.2413 15.8288 11.671C16.2586 12.1008 16.5 12.6837 16.5 13.2915V20.1665C16.5 20.288 16.5483 20.4046 16.6342 20.4906C16.7202 20.5765 16.8368 20.6248 16.9583 20.6248Z" fill="white"/>
</svg>
