<svg width="22" height="22" viewBox="0 0 22 22" fill="none" xmlns="http://www.w3.org/2000/svg">
<path d="M21.3765 5.90335C21.4417 5.84913 21.4906 5.77788 21.5178 5.69752C21.5449 5.61716 21.5492 5.53085 21.5302 5.44819C21.5112 5.36553 21.4696 5.28976 21.4101 5.22932C21.3506 5.16888 21.2755 5.12614 21.1932 5.10585L20.469 4.92251C20.4032 4.90603 20.3418 4.87512 20.2893 4.83203C20.2369 4.78894 20.1947 4.73474 20.1657 4.67334C20.1368 4.61195 20.1218 4.54489 20.122 4.47701C20.1221 4.40913 20.1373 4.34213 20.1665 4.28085L20.5698 3.46501C20.6079 3.38596 20.6225 3.29763 20.6119 3.21051C20.6013 3.1234 20.5659 3.04117 20.5099 2.97359C20.4539 2.90602 20.3797 2.85594 20.2961 2.8293C20.2124 2.80267 20.1229 2.8006 20.0382 2.82335L18.2048 3.33668C18.1365 3.3566 18.0645 3.36035 17.9945 3.34762C17.9245 3.33489 17.8584 3.30604 17.8015 3.26335C17.0081 2.66833 16.0432 2.34668 15.0515 2.34668C13.8359 2.34668 12.6701 2.82957 11.8106 3.68911C10.9511 4.54865 10.4682 5.71444 10.4682 6.93001V7.26001C10.4686 7.31631 10.4482 7.37079 10.411 7.41306C10.3738 7.45533 10.3224 7.48242 10.2665 7.48918C7.69067 7.79168 5.22483 6.48085 2.5665 3.41918C2.50875 3.35549 2.43456 3.30896 2.35208 3.2847C2.2696 3.26044 2.18203 3.2594 2.099 3.28168C2.0242 3.31606 1.96004 3.36996 1.91326 3.43771C1.86648 3.50545 1.83882 3.58455 1.83317 3.66668C1.466 5.17491 1.61445 6.76265 2.25483 8.17668C2.27378 8.21418 2.28205 8.25618 2.27874 8.29807C2.27543 8.33995 2.26067 8.38013 2.23607 8.41419C2.21147 8.44826 2.17797 8.4749 2.13925 8.49121C2.10052 8.50752 2.05806 8.51287 2.0165 8.50668L0.989834 8.30501C0.916924 8.29329 0.842261 8.29936 0.772201 8.3227C0.702141 8.34604 0.638759 8.38597 0.587449 8.43908C0.53614 8.49219 0.498423 8.55691 0.47751 8.62773C0.456596 8.69855 0.453105 8.77338 0.467334 8.84585C0.546478 9.54934 0.782827 10.226 1.15889 10.8258C1.53494 11.4256 2.04108 11.9331 2.63983 12.3108C2.67858 12.3296 2.71126 12.3589 2.73412 12.3954C2.75698 12.4319 2.76911 12.474 2.76911 12.5171C2.76911 12.5601 2.75698 12.6023 2.73412 12.6388C2.71126 12.6753 2.67858 12.7046 2.63983 12.7233L2.154 12.9158C2.095 12.9395 2.04156 12.9752 1.99709 13.0206C1.95261 13.066 1.91807 13.1202 1.89566 13.1797C1.87324 13.2391 1.86345 13.3026 1.86689 13.3661C1.87034 13.4296 1.88695 13.4916 1.91567 13.5483C2.18433 14.1362 2.59158 14.6502 3.10247 15.0461C3.61337 15.4421 4.21268 15.7082 4.849 15.8217C4.89324 15.8377 4.93147 15.867 4.95848 15.9056C4.98549 15.9441 4.99998 15.99 4.99998 16.0371C4.99998 16.0842 4.98549 16.1301 4.95848 16.1686C4.93147 16.2072 4.89324 16.2365 4.849 16.2525C3.60267 16.768 2.26516 17.0268 0.916501 17.0133C0.794943 16.989 0.668706 17.014 0.565561 17.0828C0.462416 17.1515 0.390812 17.2585 0.366501 17.38C0.342189 17.5016 0.367162 17.6278 0.435925 17.731C0.504688 17.8341 0.61161 17.9057 0.733167 17.93C3.06842 19.0376 5.61092 19.6404 8.19483 19.6992C10.4677 19.7338 12.7001 19.096 14.6115 17.8658C16.1838 16.8163 17.472 15.3941 18.3612 13.7259C19.2505 12.0577 19.7132 10.1954 19.7082 8.30501V7.50751C19.7087 7.44095 19.7238 7.37531 19.7523 7.31516C19.7808 7.255 19.822 7.20178 19.8732 7.15918L21.3765 5.90335Z" fill="white"/>
</svg>
